<svg width="71" height="81" viewBox="0 0 71 81" fill="none" xmlns="http://www.w3.org/2000/svg">
<path d="M43.4269 37.0044L9.45606 3.27227C7.88399 1.71125 5.34686 1.71125 3.77479 3.27227C2.16859 4.86718 2.18994 7.47154 3.82205 9.03991L32.8636 36.9472C34.9111 38.9146 34.9111 42.1902 32.8636 44.1576L3.82205 72.0649C2.18994 73.6333 2.16859 76.2376 3.77479 77.8325C5.34686 79.3936 7.88399 79.3936 9.45606 77.8325L43.4269 44.1004C45.3962 42.145 45.3962 38.9599 43.4269 37.0044Z" fill="#E36658"/>
<path d="M66.5807 36.5528L32.6099 2.82067C31.0378 1.25965 28.5007 1.25965 26.9286 2.82067C25.3224 4.41558 25.3437 7.01995 26.9759 8.58832L56.0174 36.4956C58.0649 38.463 58.0649 41.7386 56.0174 43.706L26.9759 71.6133C25.3437 73.1817 25.3224 75.786 26.9286 77.3809C28.5007 78.942 31.0378 78.942 32.6099 77.3809L66.5808 43.6488C68.55 41.6934 68.55 38.5083 66.5807 36.5528Z" fill="#E9C46A"/>
</svg>
