<svg width="70" height="81" viewBox="0 0 70 81" fill="none" xmlns="http://www.w3.org/2000/svg">
<path d="M26.5731 37.0044L60.5439 3.27227C62.116 1.71125 64.6531 1.71125 66.2252 3.27227C67.8314 4.86718 67.8101 7.47154 66.1779 9.03991L37.1364 36.9472C35.0889 38.9146 35.0889 42.1902 37.1364 44.1576L66.1779 72.0649C67.8101 73.6333 67.8314 76.2376 66.2252 77.8325C64.6531 79.3936 62.116 79.3936 60.5439 77.8325L43.1923 60.6028L26.5731 44.1004C24.6038 42.1449 24.6038 38.9599 26.5731 37.0044Z" fill="#E36658"/>
<path d="M3.57305 36.5528L37.5439 2.82067C39.116 1.25965 41.6531 1.25965 43.2252 2.82067C44.8314 4.41558 44.8101 7.01995 43.1779 8.58832L14.1364 36.4956C12.0889 38.463 12.0889 41.7386 14.1364 43.706L43.1779 71.6133C44.8101 73.1817 44.8314 75.786 43.2252 77.3809C41.6531 78.942 39.116 78.942 37.5439 77.3809L20.1923 60.1512L3.57305 43.6488C1.60378 41.6933 1.60378 38.5083 3.57305 36.5528Z" fill="#E9C46A"/>
</svg>
